<svg width="33" height="32" viewBox="0 0 33 32" fill="none" xmlns="http://www.w3.org/2000/svg">
<path d="M28.5 13.334C28.5 22.6673 16.5 30.6673 16.5 30.6673C16.5 30.6673 4.5 22.6673 4.5 13.334C4.5 10.1514 5.76428 7.09914 8.01472 4.8487C10.2652 2.59827 13.3174 1.33398 16.5 1.33398C19.6826 1.33398 22.7348 2.59827 24.9853 4.8487C27.2357 7.09914 28.5 10.1514 28.5 13.334Z" stroke="#DC281E" stroke-width="2.5" stroke-linecap="round" stroke-linejoin="round"/>
<path d="M16.5 17.334C18.7091 17.334 20.5 15.5431 20.5 13.334C20.5 11.1248 18.7091 9.33398 16.5 9.33398C14.2909 9.33398 12.5 11.1248 12.5 13.334C12.5 15.5431 14.2909 17.334 16.5 17.334Z" stroke="#DC281E" stroke-width="2.5" stroke-linecap="round" stroke-linejoin="round"/>
</svg>
