<svg width="33" height="32" viewBox="0 0 33 32" fill="none" xmlns="http://www.w3.org/2000/svg">
<g clip-path="url(#clip0_1557_51597)">
<path d="M20.5672 6.66732C21.8695 6.9214 23.0664 7.55833 24.0046 8.49656C24.9429 9.4348 25.5798 10.6317 25.8339 11.934M20.5672 1.33398C23.2729 1.63457 25.796 2.84622 27.7222 4.76999C29.6484 6.69377 30.8632 9.21533 31.1672 11.9206M29.8339 22.5606V26.5606C29.8354 26.932 29.7593 27.2995 29.6106 27.6398C29.4618 27.98 29.2436 28.2854 28.97 28.5365C28.6964 28.7875 28.3733 28.9786 28.0216 29.0976C27.6698 29.2166 27.2971 29.2607 26.9272 29.2273C22.8243 28.7815 18.8832 27.3795 15.4206 25.134C12.199 23.0869 9.46768 20.3555 7.42056 17.134C5.1672 13.6556 3.76489 9.69531 3.32723 5.57398C3.29391 5.20527 3.33773 4.83366 3.4559 4.48282C3.57406 4.13197 3.76399 3.80957 4.01358 3.53615C4.26318 3.26272 4.56697 3.04426 4.90562 2.89468C5.24426 2.7451 5.61035 2.66767 5.98056 2.66732H9.98056C10.6276 2.66095 11.255 2.89009 11.7456 3.31203C12.2362 3.73397 12.5567 4.31991 12.6472 4.96065C12.8161 6.24074 13.1292 7.49762 13.5806 8.70732C13.76 9.18455 13.7988 9.7032 13.6924 10.2018C13.5861 10.7004 13.339 11.1581 12.9806 11.5207L11.2872 13.214C13.1853 16.552 15.9492 19.3159 19.2872 21.214L20.9806 19.5207C21.3431 19.1622 21.8008 18.9151 22.2994 18.8088C22.798 18.7024 23.3167 18.7413 23.7939 18.9206C25.0036 19.3721 26.2605 19.6852 27.5406 19.854C28.1883 19.9454 28.7798 20.2716 29.2026 20.7706C29.6254 21.2697 29.8501 21.9068 29.8339 22.5606Z" stroke="#DC281E" stroke-width="2.5" stroke-linecap="round" stroke-linejoin="round"/>
</g>
<defs>
<clipPath id="clip0_1557_51597">
<rect width="32" height="32" fill="white" transform="translate(0.5)"/>
</clipPath>
</defs>
</svg>
