<svg width="33" height="32" viewBox="0 0 33 32" fill="none" xmlns="http://www.w3.org/2000/svg">
<path d="M8.5013 11.9993V2.66602H24.5013V11.9993M8.5013 23.9993H5.83464C5.12739 23.9993 4.44911 23.7184 3.94902 23.2183C3.44892 22.7182 3.16797 22.0399 3.16797 21.3327V14.666C3.16797 13.9588 3.44892 13.2805 3.94902 12.7804C4.44911 12.2803 5.12739 11.9993 5.83464 11.9993H27.168C27.8752 11.9993 28.5535 12.2803 29.0536 12.7804C29.5537 13.2805 29.8346 13.9588 29.8346 14.666V21.3327C29.8346 22.0399 29.5537 22.7182 29.0536 23.2183C28.5535 23.7184 27.8752 23.9993 27.168 23.9993H24.5013M8.5013 18.666H24.5013V29.3327H8.5013V18.666Z" stroke="#DC281E" stroke-width="2.5" stroke-linecap="round" stroke-linejoin="round"/>
</svg>
