<svg id="SvgjsSvg1001" width="288" height="288" xmlns="http://www.w3.org/2000/svg" version="1.1" xmlns:xlink="http://www.w3.org/1999/xlink" xmlns:svgjs="http://svgjs.com/svgjs"><defs id="SvgjsDefs1002"></defs><g id="SvgjsG1008"><svg xmlns="http://www.w3.org/2000/svg" viewBox="0 0 40 40" width="288" height="288"><path d="M15.37 6C8 6 3.3 11.14 3.3 16.29c0 4.89 4.7 7.83 4.7 7.83l-1.1 3.43 4-2.08a15.52 15.52 0 0 0 4.89.67h.09a7.77 7.77 0 0 1-.45-2.63 8.36 8.36 0 0 1 3.12-6.4 11.41 11.41 0 0 1 7.45-2.6h1a.34.34 0 0 0 0-.1C27 11.94 22.77 6 15.37 6Zm-4.26 8.23a1.65 1.65 0 1 1 1.65-1.65 1.65 1.65 0 0 1-1.65 1.65Zm8.2 0A1.65 1.65 0 1 1 21 12.58a1.65 1.65 0 0 1-1.69 1.65Zm16.57 9.28c0-4.63-4.44-8.39-9.92-8.39S16 18.88 16 23.51s4.48 8.39 10 8.39a11.36 11.36 0 0 0 3.73-.62L32.88 33 32 30.13a8 8 0 0 0 3.88-6.62Zm-13-1.38a1.35 1.35 0 1 1 1.34-1.34 1.34 1.34 0 0 1-1.29 1.34Zm6.55 0a1.35 1.35 0 1 1 1.34-1.34 1.34 1.34 0 0 1-1.29 1.34Z" fill="#ffffff" class="svgShape color000000-0 selectable"></path></svg></g></svg>